<?xml version="1.0" encoding="UTF-8"?>
<svg version="1.1" xmlns="http://www.w3.org/2000/svg" width="512" height="512">
<path d="M0 0 C1.93081164 3.04677784 2.25091747 5.40201963 2.25447559 8.97602749 C2.26030779 9.98412611 2.26613998 10.99222474 2.27214891 12.03087181 C2.26836958 13.13640295 2.26459026 14.2419341 2.26069641 15.38096619 C2.26452196 16.55691914 2.26834751 17.73287209 2.27228898 18.94445997 C2.28083229 22.2094692 2.28038149 25.47433515 2.27610838 28.73934829 C2.27364523 32.26020936 2.28265019 35.78104378 2.29014587 39.30189514 C2.30290626 46.1998917 2.30468491 53.09784936 2.30234561 59.99585574 C2.30056383 65.60165302 2.30230909 71.20743847 2.30657005 76.81323433 C2.30716524 77.61055279 2.30776043 78.40787126 2.30837366 79.22935088 C2.30958538 80.84901209 2.31079952 82.4686733 2.31201603 84.08833451 C2.32289668 99.28327555 2.32072657 114.47819442 2.31463119 129.67313672 C2.30946126 143.57903096 2.32071852 157.48485517 2.33972941 171.39073556 C2.35909331 185.66407961 2.36736637 199.9373905 2.36360615 214.21074778 C2.36169194 222.22625029 2.36420304 230.24169317 2.37832069 238.25718498 C2.39021702 245.08063693 2.39165908 251.90399255 2.37953053 258.72744577 C2.37362955 262.20958882 2.3725758 265.69155554 2.38453293 269.17368698 C2.39492939 272.94663992 2.38695642 276.71911487 2.3742218 280.49205017 C2.38159609 281.59535059 2.38897037 282.69865102 2.39656812 283.83538479 C2.33035947 293.12104361 2.33035947 293.12104361 -1 297 C-24.35723936 313.44655834 -64.11961294 310.52117225 -91.62695312 310.39111328 C-95.27014775 310.37402245 -98.91268442 310.38420846 -102.5558567 310.40143394 C-170.22052431 310.6723483 -170.22052431 310.6723483 -191 297 C-193.73943785 293.97854111 -194.37556237 292.04301447 -194.38031673 287.99273777 C-194.38875668 286.97767235 -194.39719662 285.96260694 -194.40589231 284.91678196 C-194.39687724 283.2468124 -194.39687724 283.2468124 -194.38768005 281.54310608 C-194.39306559 280.35898602 -194.39845113 279.17486597 -194.40399987 277.95486349 C-194.41584633 274.6669224 -194.41420103 271.37948707 -194.40683305 268.09156573 C-194.40211076 264.54615257 -194.41460288 261.00079425 -194.42485046 257.45539856 C-194.44206232 250.5092599 -194.44287355 243.5632116 -194.43763756 236.61705715 C-194.43359905 230.97216264 -194.43503561 225.32729488 -194.44038582 219.68240166 C-194.44113424 218.87953247 -194.44188266 218.07666329 -194.44265376 217.24946473 C-194.44418521 215.61852952 -194.44572356 213.98759431 -194.44726873 212.35665911 C-194.46100241 197.05583737 -194.45555 181.75506673 -194.44408352 166.45424616 C-194.43415024 152.45133115 -194.44709188 138.44854825 -194.47101771 124.44565362 C-194.49539083 110.07286135 -194.50502099 95.70013066 -194.49836498 81.32731813 C-194.49486878 73.25590863 -194.49713123 65.18460077 -194.51461601 57.11320686 C-194.52931569 50.24215057 -194.53000285 43.37126746 -194.5125451 36.50021464 C-194.50401413 32.99372252 -194.50193613 29.48754007 -194.51719666 25.98106384 C-194.53031443 22.18170629 -194.51893953 18.38319788 -194.50120544 14.58387756 C-194.51081045 13.47279524 -194.52041546 12.36171292 -194.53031152 11.21696144 C-194.45841125 3.76140638 -194.45841125 3.76140638 -192.11320591 -0.13390446 C-177.23379279 -13.27337486 -145.81416179 -13.05856799 -127.3125 -14.125 C-126.60279053 -14.16669312 -125.89308105 -14.20838623 -125.16186523 -14.25134277 C-25.83181494 -19.97958558 -25.83181494 -19.97958558 0 0 Z " fill="#7800F1" transform="translate(352,171)"/>
<path d="M0 0 C0.74081314 0.34593704 1.48162628 0.69187408 2.24488831 1.04829407 C3.7141703 1.72688728 3.7141703 1.72688728 5.21313477 2.41918945 C6.18082291 2.8682515 7.14851105 3.31731354 8.14552307 3.77998352 C12.00561681 5.42980522 15.8312558 6.38370499 19.9375 7.1875 C20.71834961 7.34911621 21.49919922 7.51073242 22.30371094 7.67724609 C24.53323481 8.13263624 26.76573216 8.56860263 29 9 C30.00675781 9.20496094 31.01351562 9.40992188 32.05078125 9.62109375 C51.42357283 13.23772199 71.16056842 13.32528081 90.79492188 13.26074219 C94.29728557 13.24934842 97.79934532 13.25613648 101.30169868 13.2676115 C122.11617435 13.32566289 142.62870995 12.57776636 163.125 8.6875 C164.21296875 8.49994141 165.3009375 8.31238281 166.421875 8.11914062 C174.80956771 6.56271316 182.37347659 3.8132617 190 0 C190.18550513 8.64907153 190.32757534 17.29745684 190.41449738 25.94808483 C190.45622064 29.96521024 190.5127878 33.98097327 190.60351562 37.99731445 C190.6905572 41.87481835 190.73829569 45.75101381 190.75901794 49.62941933 C190.7737805 51.10756346 190.80261194 52.58563725 190.84584045 54.06322289 C191.17247099 65.69212835 191.17247099 65.69212835 188.16577148 69.04605103 C186.13530238 70.33009162 184.27938522 71.25721295 182 72 C182.94875 71.690625 183.8975 71.38125 184.875 71.0625 C187.86080408 70.12605258 187.86080408 70.12605258 190 69 C189 72 189 72 187.29296875 73.16796875 C186.25076172 73.67263672 186.25076172 73.67263672 185.1875 74.1875 C184.50042969 74.53167969 183.81335938 74.87585938 183.10546875 75.23046875 C181 76 181 76 177 76 C177 76.66 177 77.32 177 78 C178.79219968 77.35564727 180.58374364 76.70947048 182.375 76.0625 C183.37273437 75.70285156 184.37046875 75.34320313 185.3984375 74.97265625 C187.93504165 74.07650708 187.93504165 74.07650708 190 73 C190.11586907 81.53616073 190.20470158 90.07199276 190.25906086 98.60874557 C190.28515132 102.57277967 190.32053763 106.53627563 190.37719727 110.5 C190.43153926 114.3255466 190.46142469 118.15057579 190.47438622 121.97647858 C190.48362241 123.43578488 190.50165922 124.89506296 190.52865028 126.35414886 C190.56497427 128.39915559 190.56994463 130.44202708 190.56762695 132.48730469 C190.57873001 133.65090515 190.58983307 134.81450562 190.60127258 136.0133667 C190 139 190 139 187.65129089 141.32086182 C173.93741601 150.00625014 155.22771386 151.33874871 139.4375 152.6875 C138.71554443 152.75037201 137.99358887 152.81324402 137.24975586 152.87802124 C107.07940745 155.4205074 76.10262266 155.27125599 46 152 C44.98631348 151.89816406 43.97262695 151.79632813 42.92822266 151.69140625 C9.24973103 148.24973103 9.24973103 148.24973103 0 139 C-0.09413687 136.94443339 -0.11742998 134.88559819 -0.11352539 132.82788086 C-0.11367142 132.18399918 -0.11381744 131.54011749 -0.1139679 130.87672424 C-0.11326885 128.73939697 -0.10547691 126.60215587 -0.09765625 124.46484375 C-0.09579204 122.98653715 -0.09436815 121.50822993 -0.09336853 120.02992249 C-0.08954359 116.13201198 -0.07971352 112.23413851 -0.06866455 108.33624268 C-0.05844992 104.36153667 -0.0538708 100.38682471 -0.04882812 96.41210938 C-0.03809122 88.608056 -0.02101509 80.80403318 0 73 C0.81889206 73.34634491 1.63778412 73.69268982 2.48149109 74.04953003 C3.55840714 74.50224274 4.63532318 74.95495544 5.74487305 75.42138672 C6.81126511 75.87085663 7.87765717 76.32032654 8.97636414 76.78341675 C22.45523462 82.20674443 37.66439135 83.4998332 52 85 C53.32632446 85.14683228 53.32632446 85.14683228 54.67944336 85.29663086 C66.76517388 86.4392558 78.9357221 86.19859664 91.0625 86.1875 C92.8758786 86.18659363 92.8758786 86.18659363 94.72589111 86.18566895 C134.86739626 86.70674043 134.86739626 86.70674043 174 79 C168.75284628 79.54821009 163.55234647 80.19354389 158.34463501 81.03501892 C138.78943713 84.14330387 119.48012063 85.31460568 99.68505859 85.20581055 C96.23918265 85.18744234 92.79357639 85.18530273 89.34765625 85.18554688 C72.98441293 85.16027404 56.67612895 84.89212148 40.4375 82.6875 C39.47424805 82.55778809 38.51099609 82.42807617 37.51855469 82.29443359 C24.72084548 80.48832239 12.54190919 78.08256121 1 72 C1.495 71.01 1.495 71.01 2 70 C2.71542969 70.32613281 3.43085938 70.65226562 4.16796875 70.98828125 C15.11856669 75.79067802 25.97345853 77.95310988 37.75 79.625 C38.60577637 79.7482666 39.46155273 79.8715332 40.34326172 79.99853516 C57.22808159 82.25546338 74.1827749 82.15837411 91.18383789 82.13037109 C95.05814518 82.12500603 98.93233682 82.13034775 102.80664062 82.13671875 C120.14808557 82.14311996 136.96417703 81.70960363 154.125 79 C155.2903125 78.82210937 156.455625 78.64421875 157.65625 78.4609375 C162.77702646 77.6758299 167.89086694 76.85768919 173 76 C164.72893985 76.67918378 156.54907871 77.70552767 148.33789062 78.89453125 C136.6487358 80.54417676 125.11551814 81.15784271 113.3125 81.16796875 C111.92024708 81.17119666 110.52799447 81.17456176 109.13574219 81.17805481 C106.23127459 81.1839984 103.32683652 81.18589985 100.42236328 81.18530273 C97.48838089 81.18522178 94.55455564 81.19212233 91.62060547 81.20581055 C75.97217293 81.27771404 60.44330904 81.28405901 44.89526367 79.24801636 C43.18841702 79.02465647 41.47810731 78.82815487 39.76757812 78.63500977 C10.08714906 75.28305925 10.08714906 75.28305925 0 67 C-0.7215271 63.97540283 -0.7215271 63.97540283 -0.68115234 60.39550781 C-0.6820285 59.74143448 -0.68290466 59.08736115 -0.68380737 58.41346741 C-0.67963816 56.25879017 -0.6330315 54.10725564 -0.5859375 51.953125 C-0.57474265 50.45670269 -0.56620382 48.96025834 -0.56021118 47.46380615 C-0.53733458 43.53081221 -0.47842456 39.59915418 -0.4119873 35.66668701 C-0.35053767 31.6516731 -0.32319064 27.63644266 -0.29296875 23.62109375 C-0.22867745 15.7467837 -0.1263153 7.87355816 0 0 Z " fill="#7800F1" transform="translate(161,252)"/>
<path d="M0 0 C1.28531974 -0.00654048 1.28531974 -0.00654048 2.59660554 -0.0132131 C5.49360758 -0.02423929 8.39014061 -0.01371319 11.28713989 -0.00342751 C13.37474246 -0.00688116 15.46234321 -0.01164374 17.54994011 -0.01760924 C23.30661575 -0.03018906 29.06314312 -0.02391724 34.81981945 -0.01465058 C41.02030149 -0.00788889 47.22075724 -0.01832696 53.42123413 -0.02659035 C64.87262462 -0.03918713 76.32394865 -0.03805637 87.77533883 -0.02985594 C98.3531505 -0.02231801 108.93094474 -0.02033509 119.50875854 -0.02392387 C120.20960842 -0.02415303 120.9104583 -0.02438218 121.63254605 -0.02461828 C124.47731373 -0.02555225 127.32208141 -0.02650745 130.16684907 -0.02749758 C156.86898621 -0.03668065 183.57109305 -0.02834457 210.27322552 -0.01220688 C234.01176659 0.00203061 257.75025939 0.00075675 281.48880005 -0.01358986 C308.14117995 -0.02964352 334.79353307 -0.03602947 361.44591713 -0.02675307 C364.28558985 -0.02579087 367.12526257 -0.02485236 369.9649353 -0.02392387 C370.66416768 -0.02368664 371.36340005 -0.02344941 372.08382128 -0.02320499 C382.65662671 -0.01978834 393.22941282 -0.02379127 403.80221558 -0.03136253 C415.8204332 -0.03992581 427.83858131 -0.037537 439.85679674 -0.0215203 C445.9937797 -0.01361228 452.13066446 -0.01058891 458.26764679 -0.02046776 C463.87823537 -0.02936295 469.48863407 -0.02456781 475.09920526 -0.0085351 C477.13616568 -0.00516523 479.17314193 -0.00693035 481.21009231 -0.01416247 C483.96485886 -0.02319796 486.71896276 -0.01401774 489.47369385 0 C490.27675406 -0.0070235 491.07981427 -0.014047 491.90720963 -0.02128333 C494.76916838 0.00811011 497.14724734 0.07921095 499.72969878 1.38582224 C501.38429093 4.6578862 501.14578584 8.03870252 501.11437035 11.62226582 C501.12091083 12.9046036 501.12091083 12.9046036 501.12758344 14.2128472 C501.13860953 17.1030969 501.12808358 19.99287647 501.11779785 22.8831234 C501.12125151 24.96588848 501.1260141 27.04865173 501.13197958 29.13141114 C501.14455938 34.8747547 501.13828759 40.61794965 501.12902093 46.36129391 C501.12225919 52.54748004 501.13269736 58.73363982 501.14096069 64.91982079 C501.15355763 76.34506311 501.15242658 87.77024453 501.14422629 99.19548537 C501.13668806 109.74976686 501.13470556 120.30403088 501.13829422 130.85831451 C501.13863795 131.90729212 501.13863795 131.90729212 501.13898863 132.9774612 C501.1399226 135.81603069 501.1408778 138.65460018 501.14186792 141.49316966 C501.15105115 168.13772419 501.14271486 194.78224836 501.12657723 221.42679821 C501.11234129 245.11164281 501.11361227 268.79643902 501.12796021 292.48128319 C501.14401616 319.07470905 501.15039839 345.66810806 501.14112341 372.26153809 C501.14016122 375.09533091 501.13922271 377.92912373 501.13829422 380.76291656 C501.13793837 381.80958926 501.13793837 381.80958926 501.13757533 382.87740687 C501.13415948 393.42573124 501.13816017 403.97403625 501.14573288 414.52235794 C501.15429883 426.51419245 501.15190188 438.50596979 501.13589065 450.49780207 C501.12798593 456.62073214 501.12495369 462.7435638 501.1348381 468.86649323 C501.14374014 474.46541488 501.13892664 480.0641464 501.12290545 485.66305066 C501.1195385 487.69464533 501.12129428 489.72625588 501.12853281 491.75784045 C501.13758349 494.50777246 501.12837222 497.2570431 501.11437035 500.00693989 C501.12139384 500.80576874 501.12841734 501.60459759 501.13565367 502.42763337 C501.10431549 505.48234298 500.87935941 508.02492048 499.72969878 510.86939919 C496.57929946 513.25351698 493.26487249 512.92365392 489.47369385 512.87809467 C488.18837411 512.88636592 488.18837411 512.88636592 486.87708831 512.89480427 C483.97995738 512.90849679 481.08367007 512.8934501 478.18655396 512.87872887 C476.09895002 512.88261824 474.01134873 512.88825574 471.92375374 512.89549977 C466.16703392 512.91032467 460.41058568 512.90003153 454.6538744 512.88576305 C448.4533888 512.87469697 442.25294268 512.88658134 436.05245972 512.89560509 C424.60104783 512.90876143 413.14975807 512.90373415 401.69835502 512.8895298 C391.12054057 512.87649312 380.54275756 512.87127913 369.9649353 512.87384796 C368.91366049 512.87408858 368.91366049 512.87408858 367.8411478 512.87433407 C364.99638011 512.87499762 362.15161244 512.87570003 359.30684478 512.87645941 C332.60469613 512.88348812 305.90260288 512.86797652 279.20046833 512.84183595 C255.46192609 512.8187198 231.72344475 512.81333221 207.9848938 512.82356834 C201.90673831 512.82617022 195.82858282 512.82875519 189.75042725 512.83116627 C189.00220352 512.83146371 188.25397978 512.83176116 187.48308261 512.83206762 C167.6646449 512.83967747 147.8462122 512.83327488 128.02777672 512.82247025 C125.89603317 512.82132241 123.76428961 512.82017923 121.63254605 512.81904342 C120.21832155 512.81828817 118.80409706 512.81752253 117.38987257 512.81674642 C106.81706924 512.81108091 96.24428166 512.81242288 85.67147827 512.81697464 C73.65325661 512.82207505 61.63510889 512.81596216 49.61689711 512.79608034 C43.47991674 512.7861795 37.34303263 512.78113322 31.20604706 512.78897285 C25.59545401 512.79599364 19.98505582 512.78931 14.37448859 512.77136923 C12.33752997 512.76730121 10.30055378 512.76836358 8.26360154 512.77488809 C5.50883019 512.78296112 2.75472783 512.77282103 0 512.75784016 C-1.20459031 512.76794663 -1.20459031 512.76794663 -2.43351579 512.77825728 C-5.29482024 512.74786803 -7.67372941 512.67545819 -10.25600493 511.37020069 C-11.91251512 508.09273826 -11.6720674 504.70357643 -11.6406765 501.11437035 C-11.64503682 500.25749052 -11.64939714 499.40061069 -11.6538896 498.51776481 C-11.66491579 495.62076276 -11.65438969 492.72422973 -11.644104 489.82723045 C-11.64755766 487.73962789 -11.65232024 485.65202714 -11.65828574 483.56443024 C-11.67086555 477.8077546 -11.66459374 472.05122723 -11.65532708 466.2945509 C-11.64856539 460.09406886 -11.65900346 453.8936131 -11.66726685 447.69313622 C-11.67986363 436.24174573 -11.67873287 424.7904217 -11.67053244 413.33903152 C-11.6629945 402.76121985 -11.66101158 392.18342561 -11.66460037 381.6056118 C-11.66482953 380.90476192 -11.66505868 380.20391205 -11.66529478 379.48182429 C-11.66622875 376.63705661 -11.66718395 373.79228894 -11.66817407 370.94752128 C-11.67735715 344.24538414 -11.66902107 317.5432773 -11.65288338 290.84114483 C-11.63864589 267.10260375 -11.63991975 243.36411095 -11.65426636 219.6255703 C-11.67032002 192.9731904 -11.67670597 166.32083728 -11.66742957 139.66845322 C-11.66646737 136.8287805 -11.66552885 133.98910777 -11.66460037 131.14943504 C-11.66436314 130.45020267 -11.66412591 129.7509703 -11.66388149 129.03054906 C-11.66046483 118.45774363 -11.66446776 107.88495753 -11.67203903 97.31215477 C-11.68060231 85.29393715 -11.67821349 73.27578904 -11.6621968 61.2575736 C-11.65428878 55.12059064 -11.65126541 48.98370589 -11.66114426 42.84672356 C-11.67003945 37.23613498 -11.66524431 31.62573628 -11.6492116 26.01516509 C-11.64584173 23.97820466 -11.64760685 21.94122842 -11.65483896 19.90427804 C-11.66387446 17.14951149 -11.65469423 14.39540758 -11.6406765 11.6406765 C-11.6477 10.83761629 -11.6547235 10.03455608 -11.66195983 9.20716071 C-11.63257205 6.34575288 -11.56114494 3.96716223 -10.25600493 1.38467157 C-6.97842064 -0.27175509 -3.58928643 -0.0313916 0 0 Z M-2.26315308 9.37752342 C-2.26315308 172.39752342 -2.26315308 335.41752342 -2.26315308 503.37752342 C160.75684692 503.37752342 323.77684692 503.37752342 491.73684692 503.37752342 C491.73684692 340.35752342 491.73684692 177.33752342 491.73684692 9.37752342 C328.71684692 9.37752342 165.69684692 9.37752342 -2.26315308 9.37752342 Z " fill="#000000" transform="translate(11.263153076171875,-0.37752342224121094)"/>
<path d="M0 0 C1.59001831 0.6192334 1.59001831 0.6192334 3.2121582 1.25097656 C4.63741139 1.79784193 6.06279267 2.34437354 7.48828125 2.890625 C8.53006531 3.29788818 8.53006531 3.29788818 9.59289551 3.71337891 C16.89877437 6.49777989 24.29416246 7.80771569 32 9 C33.47533203 9.27263672 33.47533203 9.27263672 34.98046875 9.55078125 C75.30765214 16.68014835 119.45024448 15.01907663 159.75 8.6875 C160.9767041 8.49905518 162.2034082 8.31061035 163.46728516 8.11645508 C171.7949024 6.70958644 179.21650513 4.23927774 187 1 C187.99 0.67 188.98 0.34 190 0 C190.11586907 8.53616073 190.20470158 17.07199276 190.25906086 25.60874557 C190.28515132 29.57277967 190.32053763 33.53627563 190.37719727 37.5 C190.43153926 41.3255466 190.46142469 45.15057579 190.47438622 48.97647858 C190.48362241 50.43578488 190.50165922 51.89506296 190.52865028 53.35414886 C190.56497427 55.39915559 190.56994463 57.44202708 190.56762695 59.48730469 C190.57873001 60.65090515 190.58983307 61.81450562 190.60127258 63.0133667 C190 66 190 66 187.64738464 68.32305908 C149.15923932 92.7027222 70.19155816 84.60042992 27.375 76.5 C25.24657446 76.01478901 23.12116379 75.51603216 21 75 C19.92105469 74.77570313 18.84210938 74.55140625 17.73046875 74.3203125 C11.12657463 72.87087581 4.90546098 70.90546098 0 66 C-0.09413687 63.94443339 -0.11742998 61.88559819 -0.11352539 59.82788086 C-0.11367142 59.18399918 -0.11381744 58.54011749 -0.1139679 57.87672424 C-0.11326885 55.73939697 -0.10547691 53.60215587 -0.09765625 51.46484375 C-0.09579204 49.98653715 -0.09436815 48.50822993 -0.09336853 47.02992249 C-0.08954359 43.13201198 -0.07971352 39.23413851 -0.06866455 35.33624268 C-0.05844992 31.36153667 -0.0538708 27.38682471 -0.04882812 23.41210938 C-0.03809122 15.608056 -0.02101509 7.80403318 0 0 Z " fill="#7800F1" transform="translate(161,398)"/>
<path d="M0 0 C1.93081164 3.04677784 2.25091747 5.40201963 2.25447559 8.97602749 C2.26030779 9.98412611 2.26613998 10.99222474 2.27214891 12.03087181 C2.26836958 13.13640295 2.26459026 14.2419341 2.26069641 15.38096619 C2.26452196 16.55691914 2.26834751 17.73287209 2.27228898 18.94445997 C2.28083229 22.2094692 2.28038149 25.47433515 2.27610838 28.73934829 C2.27364523 32.26020936 2.28265019 35.78104378 2.29014587 39.30189514 C2.30290626 46.1998917 2.30468491 53.09784936 2.30234561 59.99585574 C2.30056383 65.60165302 2.30230909 71.20743847 2.30657005 76.81323433 C2.30716524 77.61055279 2.30776043 78.40787126 2.30837366 79.22935088 C2.30958538 80.84901209 2.31079952 82.4686733 2.31201603 84.08833451 C2.32289668 99.28327555 2.32072657 114.47819442 2.31463119 129.67313672 C2.30946126 143.57903096 2.32071852 157.48485517 2.33972941 171.39073556 C2.35909331 185.66407961 2.36736637 199.9373905 2.36360615 214.21074778 C2.36169194 222.22625029 2.36420304 230.24169317 2.37832069 238.25718498 C2.39021702 245.08063693 2.39165908 251.90399255 2.37953053 258.72744577 C2.37362955 262.20958882 2.3725758 265.69155554 2.38453293 269.17368698 C2.39492939 272.94663992 2.38695642 276.71911487 2.3742218 280.49205017 C2.38159609 281.59535059 2.38897037 282.69865102 2.39656812 283.83538479 C2.33035947 293.12104361 2.33035947 293.12104361 -1 297 C-24.35723936 313.44655834 -64.11961294 310.52117225 -91.62695312 310.39111328 C-95.27014775 310.37402245 -98.91268442 310.38420846 -102.5558567 310.40143394 C-170.22052431 310.6723483 -170.22052431 310.6723483 -191 297 C-193.73943785 293.97854111 -194.37556237 292.04301447 -194.38031673 287.99273777 C-194.38875668 286.97767235 -194.39719662 285.96260694 -194.40589231 284.91678196 C-194.39687724 283.2468124 -194.39687724 283.2468124 -194.38768005 281.54310608 C-194.39306559 280.35898602 -194.39845113 279.17486597 -194.40399987 277.95486349 C-194.41584633 274.6669224 -194.41420103 271.37948707 -194.40683305 268.09156573 C-194.40211076 264.54615257 -194.41460288 261.00079425 -194.42485046 257.45539856 C-194.44206232 250.5092599 -194.44287355 243.5632116 -194.43763756 236.61705715 C-194.43359905 230.97216264 -194.43503561 225.32729488 -194.44038582 219.68240166 C-194.44113424 218.87953247 -194.44188266 218.07666329 -194.44265376 217.24946473 C-194.44418521 215.61852952 -194.44572356 213.98759431 -194.44726873 212.35665911 C-194.46100241 197.05583737 -194.45555 181.75506673 -194.44408352 166.45424616 C-194.43415024 152.45133115 -194.44709188 138.44854825 -194.47101771 124.44565362 C-194.49539083 110.07286135 -194.50502099 95.70013066 -194.49836498 81.32731813 C-194.49486878 73.25590863 -194.49713123 65.18460077 -194.51461601 57.11320686 C-194.52931569 50.24215057 -194.53000285 43.37126746 -194.5125451 36.50021464 C-194.50401413 32.99372252 -194.50193613 29.48754007 -194.51719666 25.98106384 C-194.53031443 22.18170629 -194.51893953 18.38319788 -194.50120544 14.58387756 C-194.51081045 13.47279524 -194.52041546 12.36171292 -194.53031152 11.21696144 C-194.45841125 3.76140638 -194.45841125 3.76140638 -192.11320591 -0.13390446 C-177.23379279 -13.27337486 -145.81416179 -13.05856799 -127.3125 -14.125 C-126.60279053 -14.16669312 -125.89308105 -14.20838623 -125.16186523 -14.25134277 C-25.83181494 -19.97958558 -25.83181494 -19.97958558 0 0 Z M-191 9 C-191.11586907 17.53616073 -191.20470158 26.07199276 -191.25906086 34.60874557 C-191.28515132 38.57277967 -191.32053763 42.53627563 -191.37719727 46.5 C-191.43153926 50.3255466 -191.46142469 54.15057579 -191.47438622 57.97647858 C-191.48362241 59.43578488 -191.50165922 60.89506296 -191.52865028 62.35414886 C-191.56497427 64.39915559 -191.56994463 66.44202708 -191.56762695 68.48730469 C-191.57873001 69.65090515 -191.58983307 70.81450562 -191.60127258 72.0133667 C-191.25307738 75.19101004 -191.25307738 75.19101004 -188.61076355 77.33673096 C-181.13377679 82.10018056 -172.15336795 83.50875325 -163.5625 85.125 C-162.73693604 85.28355469 -161.91137207 85.44210937 -161.06079102 85.60546875 C-141.67838626 89.04512749 -122.21206452 89.32303089 -102.59082031 89.26074219 C-98.98661325 89.24939163 -95.38270304 89.25610303 -91.77850628 89.26761818 C-44.1023871 91.1210598 -44.1023871 91.1210598 -1 75 C-0.13459648 71.9541443 -0.13459648 71.9541443 -0.31884766 68.48730469 C-0.3179715 67.84298492 -0.31709534 67.19866516 -0.31619263 66.53482056 C-0.32036136 64.41258964 -0.36696483 62.29355083 -0.4140625 60.171875 C-0.42525755 58.6978732 -0.43379628 57.22384903 -0.43978882 55.74981689 C-0.46266397 51.8759971 -0.52157248 48.00353392 -0.5880127 44.13024902 C-0.64946561 40.17556104 -0.67681004 36.22065314 -0.70703125 32.265625 C-0.77131992 24.50979914 -0.87367974 16.75508987 -1 9 C-1.75724365 9.30558838 -2.5144873 9.61117676 -3.29467773 9.92602539 C-32.70645722 21.60208513 -65.31502007 21.34593434 -96.49987793 21.19561768 C-99.35324915 21.18471819 -102.20657286 21.18515215 -105.05996132 21.18575573 C-107.86218562 21.18548115 -110.66438036 21.17995686 -113.4665947 21.17275429 C-115.40160521 21.16814722 -117.33662173 21.16631596 -119.27163696 21.16459656 C-131.92067678 21.09750428 -144.37288708 20.17281679 -156.875 18.25 C-158.55565552 17.99210693 -158.55565552 17.99210693 -160.27026367 17.72900391 C-171.02248498 15.9866562 -180.89609602 13.06379381 -191 9 Z M-191 81 C-191.18550513 89.64907153 -191.32757534 98.29745684 -191.41449738 106.94808483 C-191.45622064 110.96521024 -191.5127878 114.98097327 -191.60351562 118.99731445 C-191.6905572 122.87481835 -191.73829569 126.75101381 -191.75901794 130.62941933 C-191.7737805 132.10756346 -191.80261194 133.58563725 -191.84584045 135.06322289 C-192.39531158 143.05891546 -192.39531158 143.05891546 -189.26753235 150.00306702 C-187.19979752 151.32676659 -185.31912896 152.21270361 -183 153 C-181.56720703 153.60521484 -181.56720703 153.60521484 -180.10546875 154.22265625 C-158.56486595 160.42242814 -135.6799515 162.12814055 -113.36328125 162.203125 C-112.35741502 162.20736607 -112.35741502 162.20736607 -111.33122826 162.21169281 C-107.77281707 162.22654378 -104.21444485 162.23585825 -100.65600586 162.24023438 C-97.78347857 162.24458718 -94.91125704 162.2583745 -92.03881836 162.28125 C-69.69891441 162.45539713 -47.98582487 161.02050805 -25.90205383 157.38092041 C-23.22480924 157.02950821 -20.69558017 156.92859185 -18 157 C-42.59341479 161.56560918 -66.55894414 163.18690675 -91.55908203 163.18530273 C-95.332474 163.18747551 -99.10556623 163.20565158 -102.87890625 163.22460938 C-161.82388515 163.36304512 -161.82388515 163.36304512 -187 152 C-187.99 151.67 -188.98 151.34 -190 151 C-190 151.66 -190 152.32 -190 153 C-177.57283729 159.54908791 -164.3377909 161.83251352 -150.5625 163.6875 C-149.68303711 163.80689941 -148.80357422 163.92629883 -147.89746094 164.04931641 C-130.45376397 166.22427032 -112.86330404 166.23803234 -95.3125 166.25 C-94.14757019 166.25133942 -92.98264038 166.25267883 -91.78240967 166.25405884 C-69.30349415 166.24846793 -47.34063184 165.36698769 -25.30810547 160.59692383 C-22.43598115 160.07866966 -19.90491332 159.87727171 -17 160 C-19.06132989 160.46356744 -21.12415643 160.92047939 -23.1875 161.375 C-24.33605469 161.63023437 -25.48460937 161.88546875 -26.66796875 162.1484375 C-67.68863688 170.58691747 -114.70065198 170.43537856 -156 164 C-156.96921387 163.85014648 -157.93842773 163.70029297 -158.93701172 163.54589844 C-170.15882799 161.72864712 -180.76903915 159.11548042 -191 154 C-191.11586907 162.53616073 -191.20470158 171.07199276 -191.25906086 179.60874557 C-191.28515132 183.57277967 -191.32053763 187.53627563 -191.37719727 191.5 C-191.43153926 195.3255466 -191.46142469 199.15057579 -191.47438622 202.97647858 C-191.48362241 204.43578488 -191.50165922 205.89506296 -191.52865028 207.35414886 C-191.56497427 209.39915559 -191.56994463 211.44202708 -191.56762695 213.48730469 C-191.57873001 214.65090515 -191.58983307 215.81450562 -191.60127258 217.0133667 C-191.25378759 220.1928134 -191.25378759 220.1928134 -188.60099792 222.33453369 C-176.95908671 229.78906132 -162.66715808 231.03638202 -149.25 232.625 C-148.21617187 232.74818604 -147.18234375 232.87137207 -146.1171875 232.99829102 C-129.30432209 234.8754682 -112.46641866 235.23827231 -95.5625 235.25 C-94.54441254 235.25100708 -93.52632507 235.25201416 -92.47738647 235.25305176 C-45.441228 236.71440207 -45.441228 236.71440207 -2.38285828 221.82206726 C-0.3284621 219.11517525 -0.64018464 216.96768761 -0.65942383 213.60083008 C-0.65898575 212.95665634 -0.65854767 212.3124826 -0.65809631 211.64878845 C-0.66018441 209.52205979 -0.68351487 207.39612198 -0.70703125 205.26953125 C-0.71262717 203.79408702 -0.71689729 202.31863722 -0.71989441 200.84318542 C-0.73134363 196.96160466 -0.76081113 193.08036117 -0.79400635 189.19891357 C-0.82470576 185.23747317 -0.83839945 181.27597822 -0.85351562 177.31445312 C-0.88568106 169.54281506 -0.93687795 161.77145481 -1 154 C-1.60328125 154.27714844 -2.2065625 154.55429687 -2.828125 154.83984375 C-3.62734375 155.20207031 -4.4265625 155.56429687 -5.25 155.9375 C-6.03890625 156.29714844 -6.8278125 156.65679687 -7.640625 157.02734375 C-9.75823698 157.90033279 -11.76669362 158.51338508 -14 159 C-14 158.34 -14 157.68 -14 157 C-13.154375 156.9175 -12.30875 156.835 -11.4375 156.75 C-7.27886509 155.84266147 -4.60417301 154.23458727 -1 152 C-1.33 151.34 -1.66 150.68 -2 150 C-2.78375 150.495 -3.5675 150.99 -4.375 151.5 C-7 153 -7 153 -9 153 C-8.43156372 152.81476273 -7.86312744 152.62952545 -7.27746582 152.43867493 C-4.59483496 151.24442518 -2.97050723 150.19806763 -1 148 C0.17873797 142.97612743 -0.06891399 137.97698526 -0.21875 132.85546875 C-0.2336807 131.36048921 -0.24506382 129.86547038 -0.25305176 128.37043762 C-0.28352336 124.44518978 -0.36203478 120.52232995 -0.45068359 116.59802246 C-0.53268774 112.5897655 -0.56909378 108.58112057 -0.609375 104.57226562 C-0.69504136 96.7137507 -0.8314795 88.8571728 -1 81 C-1.53771027 81.27529037 -2.07542053 81.55058075 -2.62942505 81.83421326 C-3.34097748 82.19499466 -4.05252991 82.55577606 -4.78564453 82.92749023 C-5.83970993 83.4641758 -5.83970993 83.4641758 -6.91506958 84.01170349 C-31.66278244 95.74258812 -64.91944484 94.36377579 -91.46533203 94.31567383 C-94.22786807 94.31105583 -96.98996232 94.3179353 -99.75244141 94.33618164 C-163.72833677 94.75436662 -163.72833677 94.75436662 -189 82 C-189.66 81.67 -190.32 81.34 -191 81 Z M-191 227 C-191.11586907 235.53616073 -191.20470158 244.07199276 -191.25906086 252.60874557 C-191.28515132 256.57277967 -191.32053763 260.53627563 -191.37719727 264.5 C-191.43153926 268.3255466 -191.46142469 272.15057579 -191.47438622 275.97647858 C-191.48362241 277.43578488 -191.50165922 278.89506296 -191.52865028 280.35414886 C-191.56497427 282.39915559 -191.56994463 284.44202708 -191.56762695 286.48730469 C-191.57873001 287.65090515 -191.58983307 288.81450562 -191.60127258 290.0133667 C-191.25291466 293.17769665 -191.25291466 293.17769665 -188.67375183 295.30548096 C-174.24943135 304.44704954 -154.58276909 305.32708681 -138 307 C-136.60164917 307.14683228 -136.60164917 307.14683228 -135.17504883 307.29663086 C-124.20262579 308.3031022 -113.19594205 308.19903477 -102.1875 308.1875 C-101.12708496 308.18689575 -100.06666992 308.1862915 -98.97412109 308.18566895 C-46.90206596 310.80631087 -46.90206596 310.80631087 -1 293 C-0.27789259 289.94495892 -0.27789259 289.94495892 -0.43237305 286.48730469 C-0.43164291 285.84298492 -0.43091278 285.19866516 -0.43016052 284.53482056 C-0.43363384 282.41297101 -0.47247461 280.29333909 -0.51171875 278.171875 C-0.52104799 276.69786783 -0.52816358 275.22384513 -0.53315735 273.74981689 C-0.55221903 269.87618971 -0.60131082 266.00350474 -0.65667725 262.13024902 C-0.70788875 258.17550401 -0.73067533 254.22060625 -0.75585938 250.265625 C-0.80943196 242.5099878 -0.89473263 234.75512608 -1 227 C-1.98750244 227.4012207 -2.97500488 227.80244141 -3.99243164 228.21582031 C-13.05148952 231.80920504 -21.76099175 234.29988628 -31.4375 235.75 C-32.08350159 235.85017426 -32.72950317 235.95034851 -33.39508057 236.05355835 C-37.92331281 236.75511643 -42.45792694 237.39338024 -47 238 C-48.50022705 238.20133545 -48.50022705 238.20133545 -50.03076172 238.40673828 C-94.89625517 244.01393917 -148.66299646 243.94371447 -191 227 Z " fill="#34A498" transform="translate(352,171)"/>
<path d="M0 0 C0.99 0 1.98 0 3 0 C3 2.31 3 4.62 3 7 C9.6 7 16.2 7 23 7 C23 11.29 23 15.58 23 20 C16.4 20 9.8 20 3 20 C3 21.32 3 22.64 3 24 C17.52 24 32.04 24 47 24 C47 28.29 47 32.58 47 37 C32.48 37 17.96 37 3 37 C3 38.32 3 39.64 3 41 C5.97 41 8.94 41 12 41 C12 45.29 12 49.58 12 54 C9.03 54 6.06 54 3 54 C3 55.32 3 56.64 3 58 C9.27 58 15.54 58 22 58 C22 62.29 22 66.58 22 71 C15.73 71 9.46 71 3 71 C3 72.32 3 73.64 3 75 C10.59 75 18.18 75 26 75 C26 79.29 26 83.58 26 88 C18.41 88 10.82 88 3 88 C3 89.32 3 90.64 3 92 C5.97 92 8.94 92 12 92 C12 96.29 12 100.58 12 105 C9.03 105 6.06 105 3 105 C3 106.98 3 108.96 3 111 C22.8 111 42.6 111 63 111 C63 114.63 63 118.26 63 122 C10.86 122 -41.28 122 -95 122 C-95 82.4 -95 42.8 -95 2 C-92.03 2 -89.06 2 -86 2 C-86 37.97 -86 73.94 -86 111 C-57.62 111 -29.24 111 0 111 C0 109.02 0 107.04 0 105 C-23.1 105 -46.2 105 -70 105 C-70 100.71 -70 96.42 -70 92 C-46.9 92 -23.8 92 0 92 C0 90.68 0 89.36 0 88 C-15.18 88 -30.36 88 -46 88 C-46 83.71 -46 79.42 -46 75 C-30.82 75 -15.64 75 0 75 C0 73.68 0 72.36 0 71 C-9.9 71 -19.8 71 -30 71 C-30 66.71 -30 62.42 -30 58 C-20.1 58 -10.2 58 0 58 C0 56.68 0 55.36 0 54 C-14.52 54 -29.04 54 -44 54 C-44 49.71 -44 45.42 -44 41 C-29.48 41 -14.96 41 0 41 C0 39.68 0 38.36 0 37 C-6.93 37 -13.86 37 -21 37 C-21 32.71 -21 28.42 -21 24 C-14.07 24 -7.14 24 0 24 C0 22.68 0 21.36 0 20 C-10.89 20 -21.78 20 -33 20 C-33 15.71 -33 11.42 -33 7 C-22.11 7 -11.22 7 0 7 C0 4.69 0 2.38 0 0 Z " fill="#F2364C" transform="translate(272,23)"/>
<path d="M0 0 C1.12890625 1.59765625 1.12890625 1.59765625 1.08984375 3.625 C-1.17147032 8.26712848 -7.74695695 9.84382221 -12.34765625 11.4765625 C-37.59213325 18.94048682 -64.77621721 18.96013528 -90.85961914 18.91333008 C-93.65014814 18.90870839 -96.44024014 18.91560859 -99.23071289 18.93383789 C-170.786421 19.39607042 -170.786421 19.39607042 -187.87109375 5.59765625 C-188.61816406 3.43603516 -188.61816406 3.43603516 -188.87109375 1.59765625 C-157.68898303 -25.80480469 -33.28066548 -24.94312924 0 0 Z " fill="#7801F1" transform="translate(349.87109375,172.40234375)"/>
<path d="M0 0 C2.97 0 5.94 0 9 0 C9 35.97 9 71.94 9 109 C37.38 109 65.76 109 95 109 C95 109.66 95 110.32 95 111 C95.99 111 96.98 111 98 111 C98 110.34 98 109.68 98 109 C117.8 109 137.6 109 158 109 C158 112.63 158 116.26 158 120 C105.86 120 53.72 120 0 120 C0 80.4 0 40.8 0 0 Z " fill="#7800F2" transform="translate(177,25)"/>
<path d="M0 0 C9.82732679 0.43483747 20.30234073 2.51776062 28 9 C29.91090514 12.06073141 30.25091264 14.39716558 30.25447559 17.97602749 C30.26030779 18.98412611 30.26613998 19.99222474 30.27214891 21.03087181 C30.26836958 22.13640295 30.26459026 23.2419341 30.26069641 24.38096619 C30.26452196 25.55691914 30.26834751 26.73287209 30.27228898 27.94445997 C30.28083229 31.2094692 30.28038149 34.47433515 30.27610838 37.73934829 C30.27364523 41.26020936 30.28265019 44.78104378 30.29014587 48.30189514 C30.30290626 55.1998917 30.30468491 62.09784936 30.30234561 68.99585574 C30.30056383 74.60165302 30.30230909 80.20743847 30.30657005 85.81323433 C30.30746284 87.00921202 30.30746284 87.00921202 30.30837366 88.22935088 C30.30958538 89.84901209 30.31079952 91.4686733 30.31201603 93.08833451 C30.32289668 108.28327555 30.32072657 123.47819442 30.31463119 138.67313672 C30.30946126 152.57903096 30.32071852 166.48485517 30.33972941 180.39073556 C30.35909331 194.66407961 30.36736637 208.9373905 30.36360615 223.21074778 C30.36169194 231.22625029 30.36420304 239.24169317 30.37832069 247.25718498 C30.39021702 254.08063693 30.39165908 260.90399255 30.37953053 267.72744577 C30.37362955 271.20958882 30.3725758 274.69155554 30.38453293 278.17368698 C30.39492939 281.94663992 30.38695642 285.71911487 30.3742218 289.49205017 C30.38159609 290.59535059 30.38897037 291.69865102 30.39656812 292.83538479 C30.33030235 302.12905469 30.33030235 302.12905469 27 306 C24.5 307.875 24.5 307.875 22 309 C21.01 308.67 20.02 308.34 19 308 C20.6282815 306.29030442 22.02444897 304.98579986 24.07901001 303.79249573 C26.27804571 302.10223923 26.27804571 302.10223923 26.49447632 299.14707947 C26.49162628 297.9872908 26.48877625 296.82750214 26.48583984 295.63256836 C26.4919931 294.31788071 26.49814636 293.00319305 26.50448608 291.64866638 C26.49069115 290.21238506 26.47615725 288.77611068 26.4609375 287.33984375 C26.45855323 285.86918804 26.45764772 284.39852925 26.4581604 282.9278717 C26.45503251 279.84682123 26.43846729 276.76623615 26.41162109 273.68530273 C26.37761101 269.73168147 26.36999332 265.77857094 26.37151146 261.82482052 C26.37096825 258.78881434 26.36000956 255.7529203 26.34550858 252.71695137 C26.33913512 251.25887463 26.3352004 249.80078516 26.33372116 248.34269524 C26.32939584 246.30776285 26.31032396 244.27287779 26.29052734 242.23803711 C26.28290375 241.07904404 26.27528015 239.92005096 26.26742554 238.72593689 C26.27677123 235.85364472 26.27677123 235.85364472 24 234 C24.53571429 230.46428571 24.53571429 230.46428571 26 229 C26.09409479 226.97505769 26.11743122 224.9468013 26.11352539 222.91967773 C26.11344986 221.61840439 26.11337433 220.31713104 26.11329651 218.97642517 C26.10818909 217.54548098 26.10297308 216.11453718 26.09765625 214.68359375 C26.09579203 213.2277074 26.09436815 211.77182043 26.09336853 210.31593323 C26.08954365 206.47720621 26.07971364 202.63851681 26.06866455 198.79980469 C26.05844978 194.88542184 26.05387077 190.97103294 26.04882812 187.05664062 C26.03809134 179.37107657 26.02101529 171.68554355 26 164 C25.20335937 164.433125 25.20335937 164.433125 24.390625 164.875 C23.68421875 165.24625 22.9778125 165.6175 22.25 166 C21.55390625 166.37125 20.8578125 166.7425 20.140625 167.125 C18 168 18 168 14 168 C14 167.34 14 166.68 14 166 C14.71027344 165.72285156 15.42054688 165.44570313 16.15234375 165.16015625 C17.07144531 164.79792969 17.99054688 164.43570313 18.9375 164.0625 C20.31228516 163.52302734 20.31228516 163.52302734 21.71484375 162.97265625 C23.92418533 162.2003782 23.92418533 162.2003782 25 161 C24.401875 161.350625 23.80375 161.70125 23.1875 162.0625 C21 163 21 163 18 162 C18.56843628 161.81222488 19.13687256 161.62444977 19.72253418 161.4309845 C22.39315136 160.23491531 24.02953258 159.18359814 26 157 C27.17674481 152.04850169 26.93127669 147.12431537 26.78125 142.07421875 C26.76631898 140.60165993 26.75493601 139.12906122 26.74694824 137.65644836 C26.71647898 133.79036703 26.63797022 129.92671091 26.54931641 126.06158447 C26.46730683 122.11365571 26.4309051 118.16533287 26.390625 114.21679688 C26.30496295 106.47676181 26.16852903 98.73872137 26 91 C24.35837891 91.98226562 24.35837891 91.98226562 22.68359375 92.984375 C19.64861321 94.80035865 17.60049387 95.4364235 14 95 C17.64859761 91.95950199 21.7444533 90.03481238 26 88 C26 86.68 26 85.36 26 84 C26.02759536 81.8290613 26.05865396 79.65816578 26.09179688 77.48730469 C26.10642723 76.52082504 26.10642723 76.52082504 26.12135315 75.53482056 C26.15353139 73.41383422 26.18613837 71.29285471 26.21875 69.171875 C26.2411967 67.69785603 26.26361658 66.22383666 26.28601074 64.74981689 C26.34492652 60.87662348 26.40420627 57.00343572 26.46356201 53.13024902 C26.52410507 49.1753777 26.58430363 45.22050114 26.64453125 41.265625 C26.76268381 33.5104115 26.88122093 25.75520394 27 18 C25.68 18.33 24.36 18.66 23 19 C23 18.34 23 17.68 23 17 C23.99 16.34 24.98 15.68 26 15 C25.54973031 11.96484135 25.54973031 11.96484135 23.46875 9.83984375 C16.14097428 6.48127988 9.04836617 3.85620917 1 3 C0.67 2.01 0.34 1.02 0 0 Z " fill="#27BF6F" transform="translate(324,162)"/>
<path d="M0 0 C23.1 0 46.2 0 70 0 C70 4.29 70 8.58 70 13 C46.9 13 23.8 13 0 13 C0 8.71 0 4.42 0 0 Z " fill="#8CDACD" transform="translate(202,115)"/>
<path d="M0 0 C1.134375 0.4125 2.26875 0.825 3.4375 1.25 C9.77971206 3.55256625 16.04802115 5.12966029 22.6875 6.3125 C23.93660156 6.55323242 23.93660156 6.55323242 25.2109375 6.79882812 C44.6374471 10.32448475 64.17055392 10.57319637 83.84667969 10.51074219 C87.45088675 10.49939163 91.05479696 10.50610303 94.65899372 10.51761818 C136.58663121 10.65711762 136.58663121 10.65711762 177.16015625 1.08203125 C181.35219392 -0.44953654 181.35219392 -0.44953654 183.4375 -0.75 C184.4275 0.24 184.4275 0.24 185.4375 1.25 C176.88364107 8.09308714 165.63106742 9.55529371 155.125 11.375 C154.23312988 11.53355469 153.34125977 11.69210937 152.42236328 11.85546875 C132.96481708 15.03112176 113.32153718 15.5793628 93.6472168 15.51074219 C90.00617799 15.5000182 86.36563345 15.51071606 82.72460938 15.5234375 C11.84212063 15.56793485 11.84212063 15.56793485 -2.92578125 2.09375 C-3.46589844 1.4853125 -4.00601563 0.876875 -4.5625 0.25 C-2.5625 -0.75 -2.5625 -0.75 0 0 Z " fill="#5C49CB" transform="translate(165.5625,248.75)"/>
<path d="M0 0 C0.71542969 0.29132813 1.43085938 0.58265625 2.16796875 0.8828125 C54.26679574 21.43490149 134.25549662 17.58641144 187 1 C187.33 1.99 187.66 2.98 188 4 C171.42938243 13.27346488 150.53590724 14.20653366 132 16 C130.48792969 16.14683228 130.48792969 16.14683228 128.9453125 16.29663086 C117.56256765 17.25516879 106.16541908 17.19938728 94.75 17.1875 C93.68208221 17.18689575 92.61416443 17.1862915 91.5138855 17.18566895 C27.1300688 17.08671253 27.1300688 17.08671253 12 7 C9.44411245 5.97681649 6.86535094 5.0363314 4.27734375 4.09765625 C2 3 2 3 0 0 Z " fill="#613CD2" transform="translate(162,395)"/>
<path d="M0 0 C15.18 0 30.36 0 46 0 C46 4.29 46 8.58 46 13 C30.82 13 15.64 13 0 13 C0 8.71 0 4.42 0 0 Z " fill="#63CDBB" transform="translate(226,98)"/>
<path d="M0 0 C14.52 0 29.04 0 44 0 C44 4.29 44 8.58 44 13 C29.48 13 14.96 13 0 13 C0 8.71 0 4.42 0 0 Z " fill="#3CC0AA" transform="translate(228,64)"/>
<path d="M0 0 C14.52 0 29.04 0 44 0 C44 4.29 44 8.58 44 13 C29.48 13 14.96 13 0 13 C0 8.71 0 4.42 0 0 Z " fill="#39B59F" transform="translate(275,47)"/>
<path d="M0 0 C10.89 0 21.78 0 33 0 C33 4.29 33 8.58 33 13 C22.11 13 11.22 13 0 13 C0 8.71 0 4.42 0 0 Z " fill="#35AB97" transform="translate(239,30)"/>
<path d="M0 0 C9.9 0 19.8 0 30 0 C30 4.29 30 8.58 30 13 C20.1 13 10.2 13 0 13 C0 8.71 0 4.42 0 0 Z " fill="#48C5B0" transform="translate(242,81)"/>
<path d="M0 0 C0.59683594 0.17015625 1.19367188 0.3403125 1.80859375 0.515625 C4.86574061 1.36962739 7.93253069 2.18385258 11 3 C12.15371094 3.32484375 13.30742187 3.6496875 14.49609375 3.984375 C38.29504197 10.38530604 63.25225455 10.48243639 87.72387695 10.3225708 C90.51901997 10.30909334 93.31400512 10.31442449 96.10916615 10.3194313 C123.48759024 10.35652452 151.50591636 9.84896128 177.6015625 0.63671875 C180 0 180 0 183 1 C167.48709555 16.51290445 122.89106965 13.20533323 103.08177948 13.23339653 C98.88782157 13.23312295 94.69402351 13.21583304 90.50012207 13.19561768 C87.64675085 13.18471819 84.79342714 13.18515215 81.94003868 13.18575573 C79.13781438 13.18548115 76.33561964 13.17995686 73.5334053 13.17275429 C71.59839479 13.16814722 69.66337827 13.16631596 67.72836304 13.16459656 C55.07941589 13.09750477 42.62698914 12.17323661 30.125 10.25 C29.00673828 10.07807129 27.88847656 9.90614258 26.73632812 9.72900391 C4.04668261 6.04668261 4.04668261 6.04668261 -1 1 C-0.67 0.67 -0.34 0.34 0 0 Z " fill="#3D98A2" transform="translate(165,180)"/>
<path d="M0 0 C0 0.99 0 1.98 0 3 C-1.24460783 3.67667998 -2.49596896 4.34094719 -3.75 5 C-4.44609375 5.37125 -5.1421875 5.7425 -5.859375 6.125 C-8 7 -8 7 -12 7 C-12 7.66 -12 8.32 -12 9 C-11.01 9.495 -11.01 9.495 -10 10 C-10.54785156 9.96519531 -11.09570312 9.93039062 -11.66015625 9.89453125 C-17.00573393 9.71199933 -21.82047434 10.27310427 -27.05078125 11.40625 C-48.94944233 15.96227404 -71.02984416 16.27562022 -93.3125 16.25 C-94.44971497 16.24922455 -95.58692993 16.2484491 -96.75860596 16.24765015 C-114.07333986 16.21345846 -131.37803932 16.0205314 -148.5625 13.6875 C-149.52575195 13.55778809 -150.48900391 13.42807617 -151.48144531 13.29443359 C-164.27915452 11.48832239 -176.45809081 9.08256121 -188 3 C-187.67 2.34 -187.34 1.68 -187 1 C-186.28457031 1.32613281 -185.56914062 1.65226562 -184.83203125 1.98828125 C-173.88143331 6.79067802 -163.02654147 8.95310988 -151.25 10.625 C-150.39422363 10.7482666 -149.53844727 10.8715332 -148.65673828 10.99853516 C-131.77191841 13.25546338 -114.8172251 13.15837411 -97.81616211 13.13037109 C-93.94185482 13.12500603 -90.06766318 13.13034775 -86.19335938 13.13671875 C-68.85191443 13.14311996 -52.03582297 12.70960363 -34.875 10 C-33.12703125 9.73316406 -33.12703125 9.73316406 -31.34375 9.4609375 C-26.22297354 8.6758299 -21.10913306 7.85768919 -16 7 C-16.99 6.01 -16.99 6.01 -18 5 C-17.33613281 4.86722656 -16.67226563 4.73445313 -15.98828125 4.59765625 C-15.10527344 4.42105469 -14.22226562 4.24445313 -13.3125 4.0625 C-8 3 -8 3 -5.35546875 2.55859375 C-2.7509958 2.08514061 -2.7509958 2.08514061 0 0 Z " fill="#682ADB" transform="translate(350,321)"/>
<path d="M0 0 C0.94617188 0.25394531 1.89234375 0.50789062 2.8671875 0.76953125 C29.53382311 7.77896874 56.41459542 9.35684614 83.9206543 9.26074219 C87.56380806 9.24999614 91.2064701 9.26073086 94.84960938 9.2734375 C114.38796871 9.28602983 133.87508601 8.49778648 153.125 4.9375 C154.11113281 4.76412109 155.09726562 4.59074219 156.11328125 4.41210938 C157.95681152 4.08743906 159.79967055 3.75891674 161.64160156 3.42529297 C164.42346152 2.92363665 167.21024557 2.45556596 170 2 C170.33 2.66 170.66 3.32 171 4 C145.68754321 11.86135773 118.8068568 12.3632677 92.53466797 12.31567383 C89.77213193 12.31105583 87.01003768 12.3179353 84.24755859 12.33618164 C56.24938937 12.51916824 25.3396062 12.58395135 -1 2 C-0.67 1.34 -0.34 0.68 0 0 Z " fill="#3E95A3" transform="translate(168,254)"/>
<path d="M0 0 C5.3296471 0.57841131 10.37335029 1.52361238 15.5625 2.875 C22.47182997 4.5764876 29.38428126 5.75684644 36.4375 6.6875 C37.31672119 6.80657715 38.19594238 6.9256543 39.10180664 7.04833984 C56.54437546 9.2288576 74.13741573 9.23803283 91.6875 9.25 C92.85242981 9.25133942 94.01735962 9.25267883 95.21759033 9.25405884 C117.62693338 9.24848524 139.53910677 8.44323322 161.49658203 3.59692383 C165.06670188 2.98863512 168.38586752 2.89689585 172 3 C169.36080621 5.63919379 167.33306312 5.75385582 163.6875 6.5 C162.55699219 6.7371875 161.42648437 6.974375 160.26171875 7.21875 C112.58881457 16.28738644 45.62175054 20.67176399 0 1 C0 0.67 0 0.34 0 0 Z " fill="#4092A5" transform="translate(165,327)"/>
<path d="M0 0 C0.67877197 0.14099121 1.35754395 0.28198242 2.05688477 0.42724609 C24.31331038 5.02734693 45.85062496 8.12656327 68.63671875 8.203125 C69.64258498 8.20736607 69.64258498 8.20736607 70.66877174 8.21169281 C74.22718293 8.22654378 77.78555515 8.23585825 81.34399414 8.24023438 C84.21652143 8.24458718 87.08874296 8.2583745 89.96118164 8.28125 C112.26537365 8.45511874 133.95622884 7.05502069 156.00028992 3.38092041 C159.03421915 2.99565466 161.94524244 2.93441081 165 3 C164.67 3.66 164.34 4.32 164 5 C161.46581485 5.60844781 159.00540685 6.08929136 156.4375 6.5 C155.6731665 6.62745605 154.90883301 6.75491211 154.12133789 6.88623047 C132.87151971 10.35603502 111.94272909 11.18668229 90.44091797 11.18530273 C86.667526 11.18747551 82.89443377 11.20565158 79.12109375 11.22460938 C52.64559616 11.28700593 24.18707538 11.17882902 -1 2 C-0.67 1.34 -0.34 0.68 0 0 Z " fill="#3C9AA1" transform="translate(170,324)"/>
<path d="M0 0 C7.59 0 15.18 0 23 0 C23 4.29 23 8.58 23 13 C15.41 13 7.82 13 0 13 C0 8.71 0 4.42 0 0 Z " fill="#63CDBB" transform="translate(275,98)"/>
<path d="M0 0 C6.93 0 13.86 0 21 0 C21 4.29 21 8.58 21 13 C14.07 13 7.14 13 0 13 C0 8.71 0 4.42 0 0 Z " fill="#39B5A0" transform="translate(251,47)"/>
<path d="M0 0 C6.6 0 13.2 0 20 0 C20 4.29 20 8.58 20 13 C13.4 13 6.8 13 0 13 C0 8.71 0 4.42 0 0 Z " fill="#36AB97" transform="translate(275,30)"/>
<path d="M0 0 C6.27 0 12.54 0 19 0 C19 4.29 19 8.58 19 13 C12.73 13 6.46 13 0 13 C0 8.71 0 4.42 0 0 Z " fill="#48C4B0" transform="translate(275,81)"/>
<path d="M0 0 C-1 3 -1 3 -3.01171875 4.0625 C-17.92495825 9.28757661 -33.35188114 11.29797945 -49 13 C-49.77439926 13.08815475 -50.54879852 13.17630951 -51.34666443 13.26713562 C-58.55969483 14.01806728 -65.6423495 14.05308827 -72.88671875 13.87890625 C-74.06974075 13.85529526 -75.25276276 13.83168427 -76.47163391 13.80735779 C-80.21040051 13.73144131 -83.94892111 13.64711159 -87.6875 13.5625 C-90.23892069 13.50920704 -92.79035299 13.45646729 -95.34179688 13.40429688 C-101.56134653 13.27592499 -107.78071687 13.14066517 -114 13 C-114 12.67 -114 12.34 -114 12 C-113.40405533 11.99191315 -112.80811066 11.98382629 -112.19410706 11.97549438 C-105.84806087 11.88773204 -99.50226799 11.78821419 -93.15649414 11.68261719 C-90.80530131 11.64492399 -88.45406235 11.609982 -86.1027832 11.578125 C-73.53529745 11.4059308 -61.01745201 11.06380171 -48.484375 10.078125 C-47.49341324 10.00099274 -46.50245148 9.92386047 -45.48146057 9.84439087 C-30.78333044 8.5888387 -13.86331176 0 0 0 Z " fill="#4585AC" transform="translate(349,248)"/>
<path d="M0 0 C-8.26870484 8.26870484 -27.00110298 8.69800683 -38 10 C-38.82741699 10.10973145 -39.65483398 10.21946289 -40.50732422 10.33251953 C-62.53583913 13.19652525 -84.86735687 11.72910921 -107 11 C-107 10.67 -107 10.34 -107 10 C-105.73220703 9.98018066 -104.46441406 9.96036133 -103.15820312 9.93994141 C-53.57057558 10.03041941 -53.57057558 10.03041941 -5.3984375 -0.36328125 C-3 -1 -3 -1 0 0 Z " fill="#4585AC" transform="translate(348,181)"/>
<path d="M0 0 C0 0.66 0 1.32 0 2 C-21.28017331 8.1831772 -47.09480071 14.46578869 -69 9 C-69 8.67 -69 8.34 -69 8 C-67.73446289 7.94054199 -67.73446289 7.94054199 -66.44335938 7.87988281 C-52.09709991 7.17541375 -37.80742859 6.46281432 -23.625 4.0625 C-22.68978516 3.90491211 -21.75457031 3.74732422 -20.79101562 3.58496094 C-15.40520855 2.60910119 -10.28972709 1.2501607 -5.10693359 -0.51391602 C-3 -1 -3 -1 0 0 Z " fill="#36A599" transform="translate(344,470)"/>
<path d="M0 0 C-0.33 0.66 -0.66 1.32 -1 2 C-3.53429066 2.60847315 -5.99442651 3.08966652 -8.5625 3.5 C-9.71878906 3.69118408 -9.71878906 3.69118408 -10.8984375 3.88623047 C-13.263841 4.26997944 -15.63133559 4.63698244 -18 5 C-19.25683594 5.19851563 -20.51367188 5.39703125 -21.80859375 5.6015625 C-44.44378087 8.81120808 -67.24018268 8.00060606 -90 7 C-90 6.67 -90 6.34 -90 6 C-88.80850342 5.98541748 -87.61700684 5.97083496 -86.3894043 5.95581055 C-60.29472226 5.61222886 -34.81571679 4.66690029 -9.02319336 0.38256836 C-5.98096107 -0.00240927 -3.06292978 -0.06604469 0 0 Z " fill="#4091A5" transform="translate(335,327)"/>
<path d="M0 0 C1.134375 0.4125 2.26875 0.825 3.4375 1.25 C24.91138888 8.27540809 47.52791941 10.15802282 70 11 C70 11.33 70 11.66 70 12 C57.71546339 13.16396378 46.20975362 12.70771046 34 11 C32.83670166 10.8450708 32.83670166 10.8450708 31.64990234 10.68701172 C21.23015598 9.27160632 10.60062968 7.47938341 1 3 C0.67 2.01 0.34 1.02 0 0 Z " fill="#3D99A1" transform="translate(164,394)"/>
<path d="M0 0 C-9.62321357 9.62321357 -38.53743732 8.07547914 -51.5859375 8.09765625 C-54.51570188 8.09479091 -57.44528934 8.07957816 -60.375 8.0625 C-61.90104017 8.05746731 -63.42708198 8.05290758 -64.953125 8.04882812 C-68.63545154 8.03798019 -72.31771469 8.02081654 -76 8 C-76 7.67 -76 7.34 -76 7 C-75.00484375 6.95512451 -74.0096875 6.91024902 -72.984375 6.86401367 C-49.0356471 5.82488654 -49.0356471 5.82488654 -25.1875 3.5 C-24.25486328 3.38164795 -23.32222656 3.2632959 -22.36132812 3.14135742 C-18.37723833 2.59602219 -14.5067712 1.92481213 -10.61328125 0.9140625 C-6.81163544 -0.04765114 -3.88453932 -0.1618558 0 0 Z " fill="#3C9CA0" transform="translate(337,330)"/>
<path d="M0 0 C2.97 0 5.94 0 9 0 C9 4.29 9 8.58 9 13 C6.03 13 3.06 13 0 13 C0 8.71 0 4.42 0 0 Z " fill="#8CDACD" transform="translate(275,115)"/>
<path d="M0 0 C2.97 0 5.94 0 9 0 C9 4.29 9 8.58 9 13 C6.03 13 3.06 13 0 13 C0 8.71 0 4.42 0 0 Z " fill="#3DC0AA" transform="translate(275,64)"/>
<path d="M0 0 C1.52391357 0.26055176 1.52391357 0.26055176 3.07861328 0.52636719 C4.17931152 0.7174707 5.28000977 0.90857422 6.4140625 1.10546875 C20.92297757 3.50332955 35.36427134 4.50937886 50.0390625 5.29296875 C41.10862064 10.08410085 29.03171893 7.00400711 19.37695312 5.62255859 C16.7507852 5.25232815 14.12182427 4.9072005 11.4921875 4.5625 C9.59104816 4.30671447 7.69000529 4.05021092 5.7890625 3.79296875 C4.43071289 3.61544067 4.43071289 3.61544067 3.04492188 3.43432617 C2.19220703 3.31549072 1.33949219 3.19665527 0.4609375 3.07421875 C-0.67456543 2.92049805 -0.67456543 2.92049805 -1.83300781 2.76367188 C-4.11863695 2.25808525 -5.91791412 1.42039355 -7.9609375 0.29296875 C-4.66606924 -0.80532067 -3.35562438 -0.60428001 0 0 Z " fill="#3F93A4" transform="translate(184.9609375,403.70703125)"/>
<path d="M0 0 C-0.33 0.99 -0.66 1.98 -1 3 C-3.35472474 4.00566369 -5.5553339 4.78518535 -8 5.5 C-9.07000244 5.82145996 -9.07000244 5.82145996 -10.16162109 6.14941406 C-22.9943095 9.8639185 -39.82116372 14.22149331 -53 11 C-53 10.67 -53 10.34 -53 10 C-51.07414062 9.85304688 -51.07414062 9.85304688 -49.109375 9.703125 C-25.80253804 7.83739709 -25.80253804 7.83739709 -3.6796875 0.734375 C-2 0 -2 0 0 0 Z " fill="#3A9F9E" transform="translate(348,394)"/>
<path d="M0 0 C0 0.66 0 1.32 0 2 C-13.35092047 9.47161604 -30.7987229 12.22084664 -46 12.0625 C-47.134375 12.05347656 -48.26875 12.04445313 -49.4375 12.03515625 C-50.283125 12.02355469 -51.12875 12.01195312 -52 12 C-52 11.67 -52 11.34 -52 11 C-51.07888428 10.87471924 -50.15776855 10.74943848 -49.20874023 10.62036133 C-45.71233909 10.13775948 -42.21824474 9.6421922 -38.72485352 9.13842773 C-37.22751397 8.92507003 -35.7294758 8.71654584 -34.23071289 8.51342773 C-23.39177466 7.03985607 -10.20335261 0 0 0 Z " fill="#3B9C9F" transform="translate(350,397)"/>
<path d="M0 0 C0 0.33 0 0.66 0 1 C-8.36439599 1.97418534 -16.56886756 2.06322468 -24.98046875 1.87890625 C-26.27447098 1.85529526 -27.56847321 1.83168427 -28.90168762 1.80735779 C-32.30306649 1.74522779 -35.7042622 1.67596937 -39.10546875 1.60510254 C-42.59171372 1.53376697 -46.07808615 1.46934364 -49.56445312 1.40429688 C-56.37644042 1.27620436 -63.1882589 1.14056256 -70 1 C-70 0.67 -70 0.34 -70 0 C-62.79278442 -0.15512543 -55.58545915 -0.30327693 -48.37792683 -0.4429636 C-45.02977806 -0.50806275 -41.68174966 -0.57608492 -38.33374023 -0.64819336 C-34.46868126 -0.73104178 -30.60353363 -0.80570775 -26.73828125 -0.87890625 C-24.96871819 -0.91945885 -24.96871819 -0.91945885 -23.16340637 -0.96083069 C-15.38404683 -1.09794355 -7.74560265 -0.73168072 0 0 Z " fill="#4D70B6" transform="translate(305,409)"/>
<path d="M0 0 C-2.71946563 2.71946563 -5.84437563 3.40926684 -9.4375 4.5 C-10.16106689 4.72067139 -10.88463379 4.94134277 -11.63012695 5.16870117 C-21.89570404 8.23024449 -31.26500998 9.30720162 -42 9 C-42 8.67 -42 8.34 -42 8 C-41.38705078 7.90501221 -40.77410156 7.81002441 -40.14257812 7.7121582 C-28.43190715 5.86731148 -17.17786472 3.81499156 -5.984375 -0.14453125 C-3 -1 -3 -1 0 0 Z " fill="#3F92A5" transform="translate(348,181)"/>
<path d="M0 0 C2.375 -0.1875 2.375 -0.1875 5 0 C7 3 7 3 6.75 6.5625 C6 10 6 10 4 12 C0.46428571 11.46428571 0.46428571 11.46428571 -1 10 C-1.23880597 2.47761194 -1.23880597 2.47761194 0 0 Z " fill="#17333B" transform="translate(324,205)"/>
<path d="M0 0 C-1 3 -1 3 -3.01171875 4.0625 C-22.62710695 10.93504477 -22.62710695 10.93504477 -33 9 C-33 8.67 -33 8.34 -33 8 C-31.91203125 7.82984375 -30.8240625 7.6596875 -29.703125 7.484375 C-20.29295702 5.95376025 -8.94827266 0 0 0 Z " fill="#418FA6" transform="translate(349,248)"/>
<path d="M0 0 C6 2 6 2 7.76953125 2.6953125 C15.87023863 5.73108055 24.48756435 6.70522823 33 8 C33 8.33 33 8.66 33 9 C26.06697863 10.14158183 20.96657142 9.68891456 14.25 7.75 C13.42628906 7.53214844 12.60257813 7.31429687 11.75390625 7.08984375 C7.4664146 5.90923011 3.59898525 4.72118397 0 2 C0 1.34 0 0.68 0 0 Z " fill="#3C9BA0" transform="translate(163,248)"/>
<path d="M0 0 C1.32 0.66 2.64 1.32 4 2 C4.0270043 3.45823212 4.04639787 4.91660675 4.0625 6.375 C4.07410156 7.18710938 4.08570313 7.99921875 4.09765625 8.8359375 C4 11 4 11 3 13 C1.0625 12.625 1.0625 12.625 -1 12 C-2.50934217 8.98131566 -2.17510672 6.32702771 -2 3 C-1.34 2.01 -0.68 1.02 0 0 Z " fill="#143035" transform="translate(336,203)"/>
<path d="M0 0 C1.33582894 0.11069299 2.67177297 0.22000344 4.0078125 0.328125 C5.07370605 0.41803711 5.07370605 0.41803711 6.16113281 0.50976562 C10.22822786 0.82731659 14.30147723 1.03376779 18.375 1.25 C19.92578506 1.33456554 21.47656664 1.41919494 23.02734375 1.50390625 C24.71537109 1.59478516 24.71537109 1.59478516 26.4375 1.6875 C26.4375 2.0175 26.4375 2.3475 26.4375 2.6875 C14.15967485 3.85082786 2.65512737 3.31025841 -9.5625 1.6875 C-5.82636995 -0.80325336 -4.4113226 -0.39497279 0 0 Z " fill="#418DA7" transform="translate(207.5625,403.3125)"/>
<path d="M0 0 C0 0.99 0 1.98 0 3 C-1.24460783 3.67667998 -2.49596896 4.34094719 -3.75 5 C-4.44609375 5.37125 -5.1421875 5.7425 -5.859375 6.125 C-8 7 -8 7 -12 7 C-12 7.66 -12 8.32 -12 9 C-11.34 9.33 -10.68 9.66 -10 10 C-12.97 9.505 -12.97 9.505 -16 9 C-16 8.34 -16 7.68 -16 7 C-16.66 6.34 -17.32 5.68 -18 5 C-17.33613281 4.86722656 -16.67226563 4.73445313 -15.98828125 4.59765625 C-14.66376953 4.33275391 -14.66376953 4.33275391 -13.3125 4.0625 C-8 3 -8 3 -5.35546875 2.55859375 C-2.7509958 2.08514061 -2.7509958 2.08514061 0 0 Z " fill="#545CC1" transform="translate(350,321)"/>
<path d="M0 0 C-0.33 0.99 -0.66 1.98 -1 3 C-9.7027611 4.16036815 -17.39280284 3.6797917 -26 2 C-26 1.67 -26 1.34 -26 1 C-22.9792807 0.83100871 -19.95845177 0.66473871 -16.9375 0.5 C-16.08994141 0.45230469 -15.24238281 0.40460938 -14.36914062 0.35546875 C-9.57055312 0.09608564 -4.80550212 -0.05216285 0 0 Z " fill="#3D9AA4" transform="translate(301,477)"/>
<path d="M0 0 C0.66 0 1.32 0 2 0 C3.18306728 2.36613456 3.13354608 3.86780736 3.125 6.5 C3.12757813 7.2940625 3.13015625 8.088125 3.1328125 8.90625 C3 11 3 11 2 13 C1.01 12.67 0.02 12.34 -1 12 C-1.02698189 10.37509046 -1.04638757 8.75005367 -1.0625 7.125 C-1.07410156 6.22007812 -1.08570313 5.31515625 -1.09765625 4.3828125 C-1 2 -1 2 0 0 Z " fill="#0A0617" transform="translate(344,201)"/>
<path d="M0 0 C0.33 0.66 0.66 1.32 1 2 C-4.61 2.66 -10.22 3.32 -16 4 C-15.67 3.01 -15.34 2.02 -15 1 C-9.94997778 -0.03590199 -5.12583611 -0.10251672 0 0 Z " fill="#34AB9A" transform="translate(316,476)"/>
<path d="M0 0 C5.28 1.32 10.56 2.64 16 4 C15.67 4.66 15.34 5.32 15 6 C9.13190493 5.47606294 4.45126259 4.23891142 -1 2 C-0.67 1.34 -0.34 0.68 0 0 Z " fill="#3F93A4" transform="translate(168,254)"/>
<path d="M0 0 C2.76713403 0.18135551 5.3919776 0.4643386 8.125 0.875 C8.87910156 0.97941406 9.63320312 1.08382812 10.41015625 1.19140625 C12.27484156 1.45104598 14.13762887 1.72425029 16 2 C16 2.33 16 2.66 16 3 C9.41276707 4.04559253 4.40766041 3.83292414 -2 2 C-1.34 1.34 -0.68 0.68 0 0 Z " fill="#4388AA" transform="translate(180,254)"/>
<path d="M0 0 C-2.22843488 0.19600577 -4.45779893 0.38146569 -6.6875 0.5625 C-8.54955078 0.71912109 -8.54955078 0.71912109 -10.44921875 0.87890625 C-13.55835533 0.98493841 -16.00810972 0.77228525 -19 0 C-19 -0.33 -19 -0.66 -19 -1 C-4.3 -2.86666667 -4.3 -2.86666667 0 0 Z " fill="#428CA8" transform="translate(314,405)"/>
<path d="M0 0 C0.515625 0.37125 1.03125 0.7425 1.5625 1.125 C-1.32378401 2.70054035 -3.97092384 3.58776373 -7.1875 4.25 C-7.98671875 4.41757813 -8.7859375 4.58515625 -9.609375 4.7578125 C-10.21265625 4.87898437 -10.8159375 5.00015625 -11.4375 5.125 C-10.6484375 3.2109375 -10.6484375 3.2109375 -9.4375 1.125 C-3.54902416 -1.27400867 -3.54902416 -1.27400867 0 0 Z " fill="#3B9BA0" transform="translate(180.4375,163.875)"/>
<path d="M0 0 C1.32 1.32 2.64 2.64 4 4 C4.99 3.01 5.98 2.02 7 1 C7.125 3.375 7.125 3.375 7 6 C6.34 6.66 5.68 7.32 5 8 C1.46428571 7.46428571 1.46428571 7.46428571 0 6 C-0.04080783 4.00041636 -0.04254356 1.99954746 0 0 Z " fill="#030408" transform="translate(323,209)"/>
<path d="M0 0 C0 0.66 0 1.32 0 2 C-2.31 2.66 -4.62 3.32 -7 4 C-7.99 3.01 -8.98 2.02 -10 1 C-3.375 -1.125 -3.375 -1.125 0 0 Z " fill="#37A5A9" transform="translate(344,470)"/>
<path d="M0 0 C-3.84899168 2.4056198 -7.54644135 2.71267364 -12 3 C-12.66 2.34 -13.32 1.68 -14 1 C-8.83955235 -0.512545 -5.34001821 -1.33500455 0 0 Z " fill="#428CA8" transform="translate(339,403)"/>
<path d="M0 0 C-0.33 0.99 -0.66 1.98 -1 3 C-3.06640625 3.94921875 -3.06640625 3.94921875 -5.5625 4.6875 C-6.38878906 4.93886719 -7.21507812 5.19023437 -8.06640625 5.44921875 C-8.70449219 5.63097656 -9.34257812 5.81273437 -10 6 C-10 5.01 -10 4.02 -10 3 C-8.70990357 2.49596232 -7.41786211 1.99690074 -6.125 1.5 C-5.04605469 1.08234375 -5.04605469 1.08234375 -3.9453125 0.65625 C-2 0 -2 0 0 0 Z " fill="#418FA6" transform="translate(348,394)"/>
<path d="M0 0 C-0.33 0.66 -0.66 1.32 -1 2 C-5.36886712 3.19150921 -7.95634201 3.021829 -12 1 C-12 0.67 -12 0.34 -12 0 C-3.42857143 -1.28571429 -3.42857143 -1.28571429 0 0 Z " fill="#3D98A1" transform="translate(324,475)"/>
<path d="M0 0 C0.33 0.66 0.66 1.32 1 2 C-8.41002278 3.33257403 -8.41002278 3.33257403 -13 2 C-13 1.67 -13 1.34 -13 1 C-8.62426048 0.40667939 -4.42471556 -0.13827236 0 0 Z " fill="#428CA8" transform="translate(321,329)"/>
<path d="M0 0 C-7.28571429 4.57142857 -7.28571429 4.57142857 -12 4 C-8.15336308 0.86570325 -4.95471579 -1.65157193 0 0 Z " fill="#3C9BA0" transform="translate(350,253)"/>
<path d="M0 0 C1.32 0.66 2.64 1.32 4 2 C4 3.98 4 5.96 4 8 C3.34 7.01 2.68 6.02 2 5 C1.01 5 0.02 5 -1 5 C-0.67 3.35 -0.34 1.7 0 0 Z " fill="#0A0315" transform="translate(336,203)"/>
<path d="M0 0 C0.66 0 1.32 0 2 0 C3.10844919 3.32534757 2.84454356 5.62182575 2 9 C1.34 9 0.68 9 0 9 C-1.125 2.25 -1.125 2.25 0 0 Z " fill="#1D3C49" transform="translate(344,201)"/>
<path d="M0 0 C-3.42346555 3.14958831 -6.44262737 3.56179109 -11 4 C-11 3.34 -11 2.68 -11 2 C-7.17679443 0.57741188 -4.08718695 -0.24042276 0 0 Z " fill="#3F93A5" transform="translate(349,326)"/>
</svg>
